<?xml version="1.0" encoding="UTF-8"?>
<svg id="Layer_1" xmlns="http://www.w3.org/2000/svg" version="1.1" viewBox="0 0 595.3 841.9">
  <!-- Generator: Adobe Illustrator 29.8.2, SVG Export Plug-In . SVG Version: 2.1.1 Build 3)  -->
  <defs>
    <style>
      .st0 {
        font-family: Bauhaus93, 'Bauhaus 93';
        font-size: 148.3px;
      }

      .st0, .st1 {
        fill: #fff;
      }
    </style>
  </defs>
  <path class="st1" d="M134.4,476.2c-2.7-.6-3.6-6.2-.2-7.2,7-.8,14.6.4,21.6-.2.7,0,2.1-.2,2-1.1l-22.4-58.8c-1.4-2.5-2.1-5.8-5-7.2l-39-.6c-3.1,0-4.1,1.9-5.2,4.4-3.9,9.1-8.9,32.3-15.4,38.3s-18.3,5.1-23.8,2.9c-8.7-3.4-3.8-15.5-1.6-21.9,5.4-15.9,11.9-32.3,17.8-48.1,12.5-33.4,24.9-67.1,38.2-100.3,3.6-9,5.5-17.7,16.3-19.9s25.3-1.4,30,.2,8.3,6.4,10.2,10.7c5.9,13.1,10.5,28.4,15.7,42,16.2,42.1,33,84.1,48.2,126.5.8,9.5-3.3,11.6-12,12.1-5.2.3-15.4.2-20.1-1.7-7.3-2.9-15.7-17.9-14.9-25.7s3.2-5,5.1-7.9c4.8-7.2,3.4-16.9-3.2-22.4s-13.3-4.9-14.1-11.6,2.5-11.3-1.1-19c-5.2-11.1-13.1-8.5-21.2-12.8s-5.6-7-5.9-10.7c-.6-7.5,5.5-9.1,7.5-15.6s-1-15-5.5-17.9-10-2.5-12.6,2l-26.9,70.1c0,.7,4.1,1.1,5,1.1,12.1.2,26.4-1.8,38.3-.5,3.7.4,5.5,2.6,7,5.7,4.4,9.5,7.9,21.6,11.6,31.6,6.9,18.3,14,36.5,19.9,55.2.6.8.9,1,1.9,1.1,6.5.9,15-.7,21.8,0,1.9-.4,3.2-5.8,8.3-6.5,17.4-2.4,13.1,26-2.7,18.4-2.2-1-3.4-4.1-4.8-4.4l-19,.3c-6.9,10-17.5,17.6-25.3,26.7-3.9,4.5-6.6,11.8-13.9,10.9-9.1-1.2-8.4-13.9-.7-16.6.1-.2-.6-.9-.7-.9h-50.9c-.1,0-2-1.1-2.2-1.3-2.2-2.5-.5-6.6,3.1-6.5l69-.2c4.7-3.1,8.3-7.4,12.1-11.5l-.6-1.1h-39.6Z"/>
  <text class="st0" transform="translate(226.1 436.2)"><tspan x="0" y="0">iland</tspan></text>
</svg>