<?xml version="1.0" encoding="UTF-8"?>
<svg id="Layer_1" xmlns="http://www.w3.org/2000/svg" version="1.1" xmlns:xlink="http://www.w3.org/1999/xlink" viewBox="0 0 595.3 841.9">
  <!-- Generator: Adobe Illustrator 29.8.2, SVG Export Plug-In . SVG Version: 2.1.1 Build 3)  -->
  <defs>
    <style>
      .st0 {
        font-family: Bauhaus93, 'Bauhaus 93';
        font-size: 148.3px;
      }

      .st0, .st1 {
        fill: #fff;
      }

      .st2 {
        fill: url(#linear-gradient);
      }
    </style>
    <linearGradient id="linear-gradient" x1="154.5" y1="420.9" x2="483.9" y2="420.9" gradientUnits="userSpaceOnUse">
      <stop offset="0" stop-color="#7ecbae"/>
      <stop offset=".5" stop-color="#80b2c6"/>
      <stop offset=".8" stop-color="#99a8ca"/>
      <stop offset="1" stop-color="#aaa3ce"/>
    </linearGradient>
  </defs>
  <g>
    <rect class="st2" x="154.5" y="245.9" width="329.4" height="350.1" rx="75.8" ry="75.8"/>
    <path class="st1" d="M321.8,517.7c-2.7-.6-3.6-6.3-.2-7.4,7.1-.8,14.9.4,22-.2.7,0,2.2-.2,2-1.1l-22.9-60c-1.5-2.6-2.2-5.9-5.1-7.4l-39.8-.7c-3.2,0-4.2,1.9-5.3,4.5-3.9,9.3-9.1,32.9-15.7,39s-18.7,5.2-24.3,3c-8.9-3.5-3.9-15.8-1.7-22.4,5.6-16.3,12.1-32.9,18.2-49.1,12.7-34.1,25.4-68.5,38.9-102.3,3.7-9.2,5.6-18,16.7-20.3,5.1-1,25.8-1.4,30.6.2s8.5,6.5,10.4,10.9c6,13.4,10.7,29,16,42.8,16.5,43,33.7,85.8,49.2,129,.8,9.7-3.3,11.8-12.2,12.3-5.3.3-15.7.2-20.5-1.7-7.4-3-16.1-18.3-15.2-26.2s3.3-5.1,5.3-8.1c4.9-7.4,3.5-17.3-3.3-22.9-4.5-3.8-13.6-5-14.4-11.8-.9-7.2,2.5-11.6-1.2-19.4-5.3-11.3-13.3-8.7-21.6-13.1s-5.7-7.2-6-10.9c-.6-7.7,5.6-9.2,7.6-15.9,1.5-5-1-15.4-5.6-18.3s-10.2-2.5-12.8,2l-27.4,71.5c0,.7,4.2,1.1,5.1,1.1,12.3.2,26.9-1.8,39.1-.5,3.7.4,5.6,2.6,7.1,5.8,4.5,9.7,8,22,11.9,32.2,7,18.7,14.3,37.3,20.3,56.3.6.8,1,1,2,1.1,6.7.9,15.3-.7,22.2,0,2-.4,3.3-5.9,8.5-6.6,17.8-2.4,13.4,26.6-2.8,18.8-2.2-1.1-3.4-4.2-4.9-4.4l-19.4.3c-7,10.2-17.8,17.9-25.8,27.2-4,4.6-6.7,12.1-14.2,11.1-9.2-1.2-8.6-14.2-.7-16.9.1-.2-.6-.9-.7-.9h-51.9c-.1,0-2-1.1-2.2-1.4-2.2-2.6-.5-6.8,3.1-6.6l70.4-.2c4.8-3.1,8.5-7.6,12.3-11.7l-.7-1.1h-40.4Z"/>
  </g>
  <text class="st0" transform="translate(1125.9 383.1)"><tspan x="0" y="0">iland</tspan></text>
  <image width="1474" height="609" transform="translate(1166.2 978.5)" xlink:href="ailand-a-logo-1.png"/>
</svg>